<svg width="335" height="437" xmlns="http://www.w3.org/2000/svg" xmlns:xlink="http://www.w3.org/1999/xlink" overflow="hidden"><defs><clipPath id="clip0"><rect x="2517" y="471" width="335" height="437"/></clipPath></defs><g clip-path="url(#clip0)" transform="translate(-2517 -471)"><path d="M2641.21 845.564C2608.51 814.781 2637.85 762.354 2684.02 761.392L2690.76 761.392C2736.93 762.354 2768.2 814.781 2735.49 845.564 2716.73 863.361 2716.25 907.13 2742.22 907.13L2851.89 907.13 2851.89 743.596 2851.89 635.855 2851.89 472.32 2741.74 471.839C2715.77 471.839 2716.25 515.609 2735.01 533.405 2767.71 564.188 2738.37 616.615 2692.2 617.577L2685.47 617.577C2639.29 616.615 2608.03 564.188 2640.73 533.405 2659.49 515.609 2659.97 471.839 2634 471.839L2517.12 472.32 2517.12 635.855 2517.12 743.596 2517.12 907.13 2634.48 907.131C2660.45 907.131 2660.45 863.842 2641.21 845.564Z" fill="#FFFFFF" fill-rule="evenodd"/></g></svg>